name rise32.9588peak41.5061fall63.4684.mot
datacolumns 19
datarows 27
range 5.99830700000000 6.04164200000000
endheader
time	ground_force1_vx	ground_force1_vy	ground_force1_vz	ground_force1_px	ground_force1_py	ground_force1_pz	ground_force2_vx	ground_force2_vy	ground_force2_vz	ground_force2_px	ground_force2_py	ground_force2_pz	ground_torque1_x	ground_torque1_y	ground_torque1_z	ground_torque2_x	ground_torque2_y	ground_torque2_z	
5.99830700000000	51.45292500000000	766.38770899999997	56.54163100000000	0.31014200000000	0.00000000000000	0.11311800000000	0.00000000000000	0.00000000000000	0.00000000000000	0.00000000000000	0.00000000000000	0.00000000000000	0.00000000000000	23.58127100000000	0.00000000000000	0.00000000000000	0.00000000000000	0.00000000000000	
5.99998200000000	50.58311400000000	766.95261100000005	56.40686800000000	0.30873300000000	0.00000000000000	0.11317800000000	0.00000000000000	0.00000000000000	0.00000000000000	0.00000000000000	0.00000000000000	0.00000000000000	0.00000000000000	23.52715300000000	0.00000000000000	0.00000000000000	0.00000000000000	0.00000000000000	
6.00164800000000	49.73043300000000	767.45494900000006	56.26534100000000	0.30737000000000	0.00000000000000	0.11323600000000	0.00000000000000	0.00000000000000	0.00000000000000	0.00000000000000	0.00000000000000	0.00000000000000	0.00000000000000	23.47029000000000	0.00000000000000	0.00000000000000	0.00000000000000	0.00000000000000	
6.00331600000000	48.89586000000000	767.89534700000002	56.11768200000000	0.30605400000000	0.00000000000000	0.11329200000000	0.00000000000000	0.00000000000000	0.00000000000000	0.00000000000000	0.00000000000000	0.00000000000000	0.00000000000000	23.41099300000000	0.00000000000000	0.00000000000000	0.00000000000000	0.00000000000000	
6.00497600000000	48.08023900000000	768.27435900000000	55.96448700000000	0.30478600000000	0.00000000000000	0.11334600000000	0.00000000000000	0.00000000000000	0.00000000000000	0.00000000000000	0.00000000000000	0.00000000000000	0.00000000000000	23.34955200000000	0.00000000000000	0.00000000000000	0.00000000000000	0.00000000000000	
6.00664400000000	47.28428500000000	768.59247800000003	55.80631700000000	0.30356600000000	0.00000000000000	0.11339900000000	0.00000000000000	0.00000000000000	0.00000000000000	0.00000000000000	0.00000000000000	0.00000000000000	0.00000000000000	23.28623500000000	0.00000000000000	0.00000000000000	0.00000000000000	0.00000000000000	
6.00830900000000	46.50858400000000	768.85015799999996	55.64369800000000	0.30239400000000	0.00000000000000	0.11344900000000	0.00000000000000	0.00000000000000	0.00000000000000	0.00000000000000	0.00000000000000	0.00000000000000	0.00000000000000	23.22128800000000	0.00000000000000	0.00000000000000	0.00000000000000	0.00000000000000	
6.00997500000000	45.75359800000000	769.04782100000000	55.47712500000000	0.30127200000000	0.00000000000000	0.11349800000000	0.00000000000000	0.00000000000000	0.00000000000000	0.00000000000000	0.00000000000000	0.00000000000000	0.00000000000000	23.15493500000000	0.00000000000000	0.00000000000000	0.00000000000000	0.00000000000000	
6.01164200000000	45.01966500000000	769.18587600000001	55.30705700000000	0.30019900000000	0.00000000000000	0.11354600000000	0.00000000000000	0.00000000000000	0.00000000000000	0.00000000000000	0.00000000000000	0.00000000000000	0.00000000000000	23.08738200000000	0.00000000000000	0.00000000000000	0.00000000000000	0.00000000000000	
6.01331500000000	44.30700600000000	769.26472999999999	55.13392200000000	0.29917400000000	0.00000000000000	0.11359100000000	0.00000000000000	0.00000000000000	0.00000000000000	0.00000000000000	0.00000000000000	0.00000000000000	0.00000000000000	23.01881400000000	0.00000000000000	0.00000000000000	0.00000000000000	0.00000000000000	
6.01498100000000	43.61572500000000	769.28480300000001	54.95812000000000	0.29819800000000	0.00000000000000	0.11363500000000	0.00000000000000	0.00000000000000	0.00000000000000	0.00000000000000	0.00000000000000	0.00000000000000	0.00000000000000	22.94939900000000	0.00000000000000	0.00000000000000	0.00000000000000	0.00000000000000	
6.01664400000000	42.94581700000000	769.24653499999999	54.78002000000000	0.29726800000000	0.00000000000000	0.11367800000000	0.00000000000000	0.00000000000000	0.00000000000000	0.00000000000000	0.00000000000000	0.00000000000000	0.00000000000000	22.87928700000000	0.00000000000000	0.00000000000000	0.00000000000000	0.00000000000000	
6.01831500000000	42.29717500000000	769.15040399999998	54.59996500000000	0.29638600000000	0.00000000000000	0.11371900000000	0.00000000000000	0.00000000000000	0.00000000000000	0.00000000000000	0.00000000000000	0.00000000000000	0.00000000000000	22.80861200000000	0.00000000000000	0.00000000000000	0.00000000000000	0.00000000000000	
6.01997700000000	41.66958600000000	768.99693000000002	54.41827200000000	0.29554800000000	0.00000000000000	0.11375900000000	0.00000000000000	0.00000000000000	0.00000000000000	0.00000000000000	0.00000000000000	0.00000000000000	0.00000000000000	22.73749500000000	0.00000000000000	0.00000000000000	0.00000000000000	0.00000000000000	
6.02164700000000	41.06275000000000	768.78668900000002	54.23523500000000	0.29475500000000	0.00000000000000	0.11379800000000	0.00000000000000	0.00000000000000	0.00000000000000	0.00000000000000	0.00000000000000	0.00000000000000	0.00000000000000	22.66604100000000	0.00000000000000	0.00000000000000	0.00000000000000	0.00000000000000	
6.02331700000000	40.47627300000000	768.52031899999997	54.05112600000000	0.29400400000000	0.00000000000000	0.11383600000000	0.00000000000000	0.00000000000000	0.00000000000000	0.00000000000000	0.00000000000000	0.00000000000000	0.00000000000000	22.59434200000000	0.00000000000000	0.00000000000000	0.00000000000000	0.00000000000000	
6.02497600000000	39.90968400000000	768.19852800000001	53.86619500000000	0.29329300000000	0.00000000000000	0.11387200000000	0.00000000000000	0.00000000000000	0.00000000000000	0.00000000000000	0.00000000000000	0.00000000000000	0.00000000000000	22.52248200000000	0.00000000000000	0.00000000000000	0.00000000000000	0.00000000000000	
6.02664700000000	39.36243200000000	767.82210099999998	53.68067500000000	0.29262100000000	0.00000000000000	0.11390800000000	0.00000000000000	0.00000000000000	0.00000000000000	0.00000000000000	0.00000000000000	0.00000000000000	0.00000000000000	22.45052900000000	0.00000000000000	0.00000000000000	0.00000000000000	0.00000000000000	
6.02830700000000	38.83390300000000	767.39190699999995	53.49478200000000	0.29198600000000	0.00000000000000	0.11394200000000	0.00000000000000	0.00000000000000	0.00000000000000	0.00000000000000	0.00000000000000	0.00000000000000	0.00000000000000	22.37854600000000	0.00000000000000	0.00000000000000	0.00000000000000	0.00000000000000	
6.02997900000000	38.32341500000000	766.90890000000002	53.30871800000000	0.29138500000000	0.00000000000000	0.11397700000000	0.00000000000000	0.00000000000000	0.00000000000000	0.00000000000000	0.00000000000000	0.00000000000000	0.00000000000000	22.30658500000000	0.00000000000000	0.00000000000000	0.00000000000000	0.00000000000000	
6.03164600000000	37.83023700000000	766.37412400000005	53.12267200000000	0.29081600000000	0.00000000000000	0.11401000000000	0.00000000000000	0.00000000000000	0.00000000000000	0.00000000000000	0.00000000000000	0.00000000000000	0.00000000000000	22.23469200000000	0.00000000000000	0.00000000000000	0.00000000000000	0.00000000000000	
6.03330800000000	37.35358600000000	765.78871900000001	52.93681800000000	0.29027600000000	0.00000000000000	0.11404300000000	0.00000000000000	0.00000000000000	0.00000000000000	0.00000000000000	0.00000000000000	0.00000000000000	0.00000000000000	22.16290400000000	0.00000000000000	0.00000000000000	0.00000000000000	0.00000000000000	
6.03497600000000	36.89264000000000	765.15391599999998	52.75132500000000	0.28976300000000	0.00000000000000	0.11407600000000	0.00000000000000	0.00000000000000	0.00000000000000	0.00000000000000	0.00000000000000	0.00000000000000	0.00000000000000	22.09125500000000	0.00000000000000	0.00000000000000	0.00000000000000	0.00000000000000	
6.03664600000000	36.44654300000000	764.47104500000000	52.56634900000000	0.28927500000000	0.00000000000000	0.11410900000000	0.00000000000000	0.00000000000000	0.00000000000000	0.00000000000000	0.00000000000000	0.00000000000000	0.00000000000000	22.01977200000000	0.00000000000000	0.00000000000000	0.00000000000000	0.00000000000000	
6.03831000000000	36.01441200000000	763.74152700000002	52.38204100000000	0.28880800000000	0.00000000000000	0.11414100000000	0.00000000000000	0.00000000000000	0.00000000000000	0.00000000000000	0.00000000000000	0.00000000000000	0.00000000000000	21.94847700000000	0.00000000000000	0.00000000000000	0.00000000000000	0.00000000000000	
6.03998800000000	35.59534400000000	762.96687999999995	52.19854700000000	0.28836000000000	0.00000000000000	0.11417400000000	0.00000000000000	0.00000000000000	0.00000000000000	0.00000000000000	0.00000000000000	0.00000000000000	0.00000000000000	21.87739100000000	0.00000000000000	0.00000000000000	0.00000000000000	0.00000000000000	
6.04164200000000	35.18842400000000	762.14871200000005	52.01600500000000	0.28792700000000	0.00000000000000	0.11420600000000	0.00000000000000	0.00000000000000	0.00000000000000	0.00000000000000	0.00000000000000	0.00000000000000	0.00000000000000	21.80652800000000	0.00000000000000	0.00000000000000	0.00000000000000	0.00000000000000	
